<svg xmlns="http://www.w3.org/2000/svg" viewBox="0 0 88.71 70.64"><title>Artboard 1</title><path d="M39.43,47l35.47.09a5.84,5.84,0,0,0,3.31-.66,5.86,5.86,0,0,0,1.9-3.27q4.06-13,8.14-25.92A5.37,5.37,0,0,0,88.56,14a3.27,3.27,0,0,0-2.16-2,10.89,10.89,0,0,0-3.5-.48H24.18c-2.7,0-4.46-.67-5.41-3.35-.66-1.84-1.31-3.68-2-5.51C16.09.69,15,.06,12.8.05c-2.73,0-5.47,0-8.21,0C2.84,0,.12.49,0,2.72c-.09,1.92,2.23,3,4.16,3,2.11,0,4.51-.55,6.42.63,1.61,1,2.28,2.9,2.93,4.58q7.07,18.38,14.12,36.75a9,9,0,0,1,.85,3.67c-.13,2.34-2,4.16-3,6.27-2.28,4.74.6,11.2,5.65,12.67s11-2.45,11.55-7.68c.18-1.47.17-3.29,1.48-4a3.79,3.79,0,0,1,1.68-.28l12.59-.1a5.65,5.65,0,0,1,2.49.35c2,1,2.14,3.73,2.81,5.87A9.18,9.18,0,0,0,76,69.76a9.2,9.2,0,0,0,3.22-13,11.88,11.88,0,0,0-7.15-4.31A35.09,35.09,0,0,0,63.6,52l-24,.55a8,8,0,0,1-3.19-.35,2.74,2.74,0,0,1-1.85-2.41C34.58,47.66,37.35,47,39.43,47ZM71.91,58.6a3.23,3.23,0,1,1-3.27,3.19C68.67,60.3,69.88,58.37,71.91,58.6Zm-12-25.95c-.26,2.33-.5,4.67-.65,7-.05.88-.34,1.19-1.21,1.17-3.55-.1-7.12-.07-10.67,0-.76,0-1-.27-1.09-1-.16-2.46-.39-4.92-.64-7.37-.08-.84.39-.92,1-.92,4.07,0,8.16.14,12.23,0C59.74,31.46,60,31.82,59.89,32.65Zm3.24-5.33c.16-1.28.37-6.34.59-7.57v0c.3-1.66.31-1.66,2-1.66H79.94c1.44,0,1.53.12,1.17,1.52-.63,2.47-1.45,4.88-2.26,7.3a2.16,2.16,0,0,1-2,1.48c-2.39.36-10.85.17-12.69.22C63.24,28.6,63,28.15,63.13,27.32Zm-.42,5.28c.07-.78.45-1.14,1.33-1.13,4,.05,8,0,12,0,1.22,0,1.33.18,1,1.33-.66,2.17-1.31,4.34-2,6.5-.4,1.27-.71,1.48-2.09,1.5-1.59,0-8.14,0-9.82,0-.72,0-1-.26-1-1C62.33,37.44,62.51,35,62.71,32.6ZM46,18.05c4.59,0,9.2.06,13.79,0,.83,0,1.17.28,1.11,1.12-.17,2.58-.46,5.16-.53,7.75a1.79,1.79,0,0,1-2,1.67c-3.36,0-6.72,0-10.08,0-2.15,0-3-.83-3.2-3-.18-2-.33-4-.48-6.07C44.54,18.18,44.66,18.05,46,18.05ZM26,26.92c-1-2.6-2-5.22-3-7.82-.34-.89.06-1.06.81-1.06,5.56,0,11.12.06,16.68,0,.83,0,1.2.2,1.26,1.12.17,2.7.49,5.39.67,8.09.09,1.28,0,1.33-1.22,1.33H28.36A2.38,2.38,0,0,1,26,26.92ZM36.91,61.81a3.11,3.11,0,0,1-3.32,3.25c-2,0-3.16-1.18-3.15-3.31s1.16-3.16,3.31-3.14A2.9,2.9,0,0,1,36.91,61.81Zm-4.46-21a1.94,1.94,0,0,1-2-1.35q-1.3-3.35-2.54-6.7c-.39-1.07-.23-1.29.9-1.29,4.11,0,8.23,0,12.34,0,1.71,0,2-.26,2,.95v6.66c.08.81.28,1.79-1.21,1.75C38.77,40.76,35.59,40.73,32.45,40.84Z"/></svg>