<svg xmlns="http://www.w3.org/2000/svg" viewBox="0 0 56.63 88.75"><title>Artboard 1</title><path d="M54.74,29.88c-.6-.16-.61-.4-.58-.91a34.39,34.39,0,0,0,.12-4.18A25.52,25.52,0,0,0,45.16,6.27C40.33,2.11,34.67.13,27.81,0A25.51,25.51,0,0,0,6.93,11.29,25.42,25.42,0,0,0,2.45,29c0,.49,0,.69-.54.83A2.3,2.3,0,0,0,.3,33.31c1.1,2.34,2.22,4.68,3.34,7q3.83,8,7.66,16,7.41,15.44,14.81,30.89a2.33,2.33,0,0,0,2.23,1.53,2.31,2.31,0,0,0,2.16-1.49c1.2-2.53,2.42-5.05,3.62-7.57L48.43,49.82l7.89-16.48A2.31,2.31,0,0,0,54.74,29.88ZM12.1,12.5a20.18,20.18,0,0,1,13-7.33,20.6,20.6,0,0,1,16.6,4.52,20,20,0,0,1,7.41,13,50.53,50.53,0,0,1,.17,6.16c0,.65-.32.87-1,.87-6.65,0-13.3,0-19.95,0h0c-6.63,0-13.25,0-19.87,0-.86,0-1.1-.33-1.18-1.08A21,21,0,0,1,12.1,12.5ZM49.81,35.63c-.31.56-.57,1.15-.84,1.73q-10.06,21-20.12,42a1.91,1.91,0,0,1-.16.32c-.12.18-.26.34-.4.52a5,5,0,0,1-.38-.56q-3-6.35-6.07-12.69c-.89-1.86-1.77-3.74-2.69-5.59-.35-.69-.18-.85.53-.82a5.16,5.16,0,0,0,1.47-.12,2.54,2.54,0,0,0,1.94-2.66,2.58,2.58,0,0,0-2.52-2.34q-1.66-.08-3.33,0a1.16,1.16,0,0,1-1.33-.81c-.39-1-.89-1.9-1.35-2.84s-.52-1.08.65-1.08c3.06,0,6.13,0,9.19,0a8.16,8.16,0,0,0,1.39-.12,2.42,2.42,0,0,0,2-2.87,2.38,2.38,0,0,0-2.41-2.09q-6.43,0-12.87,0a1.24,1.24,0,0,1-1.34-.8c-1.45-3.11-2.94-6.21-4.44-9.3-.31-.63-.18-.81.5-.8H48.31c.32,0,.65,0,1,0C50.11,34.65,50.14,35,49.81,35.63Z"/><path d="M49.28,34.72c-.32,0-.65,0-1,0h-41c-.68,0-.81.17-.5.8,1.5,3.09,3,6.19,4.44,9.3a1.24,1.24,0,0,0,1.34.8q6.43,0,12.87,0a2.38,2.38,0,0,1,2.41,2.09,2.42,2.42,0,0,1-2,2.87,8.16,8.16,0,0,1-1.39.12c-3.06,0-6.13,0-9.19,0-1.17,0-1.17,0-.65,1.08s1,1.87,1.35,2.84a1.16,1.16,0,0,0,1.33.81q1.67-.08,3.33,0a2.58,2.58,0,0,1,2.52,2.34,2.54,2.54,0,0,1-1.94,2.66,5.16,5.16,0,0,1-1.47.12c-.71,0-.88.13-.53.82.92,1.85,1.8,3.73,2.69,5.59q3,6.35,6.07,12.69a5,5,0,0,0,.38.56c.14-.18.28-.34.4-.52a1.91,1.91,0,0,0,.16-.32q10-21,20.12-42c.27-.58.53-1.17.84-1.73S50.11,34.65,49.28,34.72Z" fill="#8bef56"/><path d="M8.48,29.69c6.62,0,13.24,0,19.87,0h0c6.65,0,13.3,0,19.95,0,.68,0,1-.22,1-.87a50.53,50.53,0,0,0-.17-6.16,20,20,0,0,0-7.41-13,20.6,20.6,0,0,0-16.6-4.52,20.18,20.18,0,0,0-13,7.33A21,21,0,0,0,7.3,28.61C7.38,29.36,7.62,29.7,8.48,29.69Z" fill="#336ecc"/></svg>